# ASF file generated by Tido's ASF writer for MATLAB.
:version 1.10
:name VICON
:units
  mass 1
  length 0.45000000000000001
  angle deg
:documentation
   .ast/.asf automatically generated from VICON data using
   VICON BodyBuilder and BodyLanguage model FoxedUp or BRILLIANT.MOD
:root
  axis xyz
  order tx ty tz rx ry rz 
  position 0 0 0
  orientation 0 0 0
:bonedata
  begin
    id 1
    name lhipjoint
    direction 0.44017800000000001 -0.82263900000000001 0.359871
    length 1.1390085000000001
    axis 0 0 0 xyz
  end
  begin
    id 2
    name lfemur
    direction 0.34201999999999999 -0.939693 0
    length 3.5465939999999998
    axis 0 0 20 xyz
    dof rx ry rz 
    limits (-160 20)
           (-70 70)
           (-60 70)
  end
  begin
    id 3
    name ltibia
    direction 0.34201999999999999 -0.939693 0
    length 3.7970234999999999
    axis 0 0 20 xyz
    dof rx 
    limits (-10 170)
  end
  begin
    id 4
    name lfoot
    direction 0.088635099999999994 -0.24352299999999999 0.96583699999999995
    length 1.1853629999999999
    axis -90 7.62852e-016 20 xyz
    dof rx rz 
    limits (-45 90)
           (-70 20)
  end
  begin
    id 5
    name ltoes
    direction 1.53703e-011 -4.2171700000000001e-011 1
    length 0.59142150000000004
    axis -90 7.62852e-016 20 xyz
    dof rx 
    limits (-90 20)
  end
  begin
    id 6
    name rhipjoint
    direction -0.399779 -0.83977299999999999 0.367367
    length 1.115766
    axis 0 0 0 xyz
  end
  begin
    id 7
    name rfemur
    direction -0.34201999999999999 -0.939693 0
    length 3.4866269999999999
    axis 0 0 -20 xyz
    dof rx ry rz 
    limits (-160 20)
           (-70 70)
           (-70 60)
  end
  begin
    id 8
    name rtibia
    direction -0.34201999999999999 -0.939693 0
    length 3.9349440000000002
    axis 0 0 -20 xyz
    dof rx 
    limits (-10 170)
  end
  begin
    id 9
    name rfoot
    direction -0.108514 -0.29813899999999999 0.94833400000000001
    length 1.1974590000000001
    axis -90 -7.62852e-016 -20 xyz
    dof rx rz 
    limits (-45 90)
           (-20 70)
  end
  begin
    id 10
    name rtoes
    direction -1.5339199999999999e-011 -4.2207699999999999e-011 1
    length 0.59392350000000005
    axis -90 -7.62852e-016 -20 xyz
    dof rx 
    limits (-90 20)
  end
  begin
    id 11
    name lowerback
    direction 0.011325699999999999 0.99986600000000003 0.0118602
    length 1.164123
    axis 0 0 0 xyz
    dof rx ry rz 
    limits (-20 45)
           (-30 30)
           (-30 30)
  end
  begin
    id 12
    name upperback
    direction -0.016474699999999998 0.99519299999999999 -0.096537499999999998
    length 1.135656
    axis 0 0 0 xyz
    dof rx ry rz 
    limits (-20 45)
           (-30 30)
           (-30 30)
  end
  begin
    id 13
    name thorax
    direction -0.019430099999999999 0.99433000000000005 -0.10455200000000001
    length 1.1524455
    axis 0 0 0 xyz
    dof rx ry rz 
    limits (-20 45)
           (-30 30)
           (-30 30)
  end
  begin
    id 14
    name lowerneck
    direction 0.014854300000000001 0.995587 -0.092657000000000003
    length 0.772119
    axis 0 0 0 xyz
    dof rx ry rz 
    limits (-20 45)
           (-30 30)
           (-30 30)
  end
  begin
    id 15
    name upperneck
    direction -0.0135467 0.99365599999999998 -0.111639
    length 0.76021650000000007
    axis 0 0 0 xyz
    dof rx ry rz 
    limits (-20 45)
           (-30 30)
           (-30 30)
  end
  begin
    id 16
    name head
    direction -0.0061534900000000002 0.99954699999999996 -0.029447999999999998
    length 0.78578999999999999
    axis 0 0 0 xyz
    dof rx ry rz 
    limits (-20 45)
           (-30 30)
           (-30 30)
  end
  begin
    id 17
    name lclavicle
    direction 0.98826700000000001 0.14988499999999999 0.029371299999999999
    length 2.012499
    axis 0 0 0 xyz
    dof ry rz 
    limits (-20 10)
           (0 20)
  end
  begin
    id 18
    name lhumerus
    direction 1 -4.4898600000000001e-011 -1.1483300000000001e-027
    length 2.4171659999999999
    axis 180 -30 -90 xyz
    dof rx ry rz 
    limits (-60 90)
           (-90 90)
           (-90 90)
  end
  begin
    id 19
    name lradius
    direction 0.99999800000000005 0.00170963 -0.00098705499999999992
    length 1.773954
    axis 180 -30 -90 xyz
    dof rx 
    limits (-10 170)
  end
  begin
    id 20
    name lwrist
    direction 0.99999800000000005 7.53149e-005 -0.00194706
    length 0.88697700000000002
    axis 4.6505600000000004e-015 90 90 xyz
    dof ry 
    limits (-180 0)
  end
  begin
    id 21
    name lhand
    direction 1 -4.48973e-011 -1.3174599999999999e-026
    length 0.5306265
    axis 8.4064999999999996e-015 90 90 xyz
    dof rx rz 
    limits (-90 90)
           (-45 45)
  end
  begin
    id 22
    name lfingers
    direction 1 -4.49107e-011 -2.6349199999999999e-026
    length 0.42780555000000003
    axis 1.6812999999999999e-014 90 90 xyz
    dof rx 
    limits (0 90)
  end
  begin
    id 23
    name lthumb
    direction 0.70710700000000004 -6.3504800000000005e-011 0.70710700000000004
    length 0.6142455
    axis -90 45 2.8529899999999998e-015 xyz
    dof rx rz 
    limits (-45 45)
           (-45 45)
  end
  begin
    id 24
    name rclavicle
    direction -0.996699 0.064289499999999999 -0.049572499999999999
    length 2.0817494999999999
    axis 0 0 0 xyz
    dof ry rz 
    limits (-10 20)
           (-20 0)
  end
  begin
    id 25
    name rhumerus
    direction -1 -4.4891899999999998e-011 -2.4105900000000001e-027
    length 2.474145
    axis 180 30 90 xyz
    dof rx ry rz 
    limits (-90 60)
           (-90 90)
           (-90 90)
  end
  begin
    id 26
    name rradius
    direction -0.99999899999999997 0.0011810099999999999 -0.00068185800000000003
    length 1.5677145000000001
    axis 180 30 90 xyz
    dof rx 
    limits (-10 170)
  end
  begin
    id 27
    name rwrist
    direction -0.99999899999999997 0.000321823 -0.00132288
    length 0.78385499999999997
    axis 4.6505600000000004e-015 -90 -90 xyz
    dof ry 
    limits (-180 0)
  end
  begin
    id 28
    name rhand
    direction -1 -4.4902199999999998e-011 -1.3174599999999999e-026
    length 0.60719400000000001
    axis 8.4064999999999996e-015 -90 -90 xyz
    dof rx rz 
    limits (-90 90)
           (-45 45)
  end
  begin
    id 29
    name rfingers
    direction -1 -4.4917800000000002e-011 -2.6349199999999999e-026
    length 0.48953249999999998
    axis 1.6812999999999999e-014 -90 -90 xyz
    dof rx 
    limits (0 90)
  end
  begin
    id 30
    name rthumb
    direction -0.70710700000000004 -6.3471300000000002e-011 0.70710700000000004
    length 0.70287750000000004
    axis -90 -45 -2.8529899999999998e-015 xyz
    dof rx rz 
    limits (-45 45)
           (-45 45)
  end
:hierarchy
begin
  root lhipjoint rhipjoint lowerback 
  lhipjoint lfemur 
  lfemur ltibia 
  ltibia lfoot 
  lfoot ltoes 
  rhipjoint rfemur 
  rfemur rtibia 
  rtibia rfoot 
  rfoot rtoes 
  lowerback upperback 
  upperback thorax 
  thorax lowerneck lclavicle rclavicle 
  lowerneck upperneck 
  upperneck head 
  lclavicle lhumerus 
  lhumerus lradius 
  lradius lwrist 
  lwrist lhand lthumb 
  lhand lfingers 
  rclavicle rhumerus 
  rhumerus rradius 
  rradius rwrist 
  rwrist rhand rthumb 
  rhand rfingers 
end

# AMC file generated by Tido's AMC writer for MATLAB on 27-Nov-2005 at 18:24:20
# Corresponding ASF file: S:\data_MoCap\MoCaDaDB\HDM\Bonn_ASF_AMC_Use IK_on\björn\bjorn.asf
# Number of frames: 542
# Sampling rate: 120
:fully-specified
:degrees
153
root -3.8817449999999996 8.3542950000000005 -11.072115 180.30199999999999 67.019300000000001 542.98199999999997 
lfemur -34.619900000000001 10.8634 -13.4809 
ltibia 26.956900000000001 
lfoot -7.9478600000000004 -9.2606000000000002 
ltoes -26.1707 
rfemur 10.2964 3.6932900000000002 26.974 
rtibia 23.875599999999999 
rfoot -9.7048100000000002 36.124200000000002 
rtoes 25.228400000000001 
lowerback -0.108811 1.7993699999999999 2.1996899999999999 
upperback 10.829800000000001 3.3044699999999998 -3.3462999999999998 
thorax 12.0488 2.3217099999999999 -4.4569799999999997 
lowerneck 5.4871999999999996 -13.074299999999999 -2.1121500000000002 
upperneck 2.56182 -17.574200000000001 12.816599999999999 
head 1.38673 -8.7808399999999995 4.4904799999999998 
lclavicle -1.66979e-014 2.0673600000000001e-014 
lhumerus -31.9514 3.73549 85.044600000000003 
lradius 20.8599 
lwrist -24.832599999999999 
lhand -14.6218 -5.7661100000000003 
lfingers 7.1250200000000001 
lthumb 11.529500000000001 23.896799999999999 
rclavicle -1.66979e-014 2.0673600000000001e-014 
rhumerus -20.8367 8.5729100000000003 -100.014 
rradius 63.915599999999998 
rwrist 0.74453199999999997 
rhand -16.4955 17.626200000000001 
rfingers 7.1250200000000001 
rthumb 9.7220800000000001 -12.1294 
154
root -3.8207250000000004 8.3443050000000003 -11.11473 180.54599999999999 67.515600000000006 543.21100000000001 
lfemur -34.467799999999997 10.048999999999999 -13.202999999999999 
ltibia 27.153700000000001 
lfoot -8.2540800000000001 -8.6527100000000008 
ltoes -27.9971 
rfemur 10.9887 3.9311799999999999 26.947399999999998 
rtibia 23.605799999999999 
rfoot -9.0547799999999992 36.193399999999997 
rtoes 26.173999999999999 
lowerback -0.066314600000000001 1.87395 2.2595800000000001 
upperback 10.7994 3.4047200000000002 -3.40741 
thorax 12.0084 2.37846 -4.54854 
lowerneck 5.5000200000000001 -13.018800000000001 -2.1353200000000001 
upperneck 2.6162399999999999 -17.506399999999999 12.891 
head 1.40713 -8.7446400000000004 4.5211699999999997 
lclavicle 4.9696200000000002e-014 -4.9298600000000002e-014 
lhumerus -31.6157 4.4088000000000003 84.507800000000003 
lradius 20.637699999999999 
lwrist -25.430299999999999 
lhand -14.597099999999999 -5.8023699999999998 
lfingers 7.1250200000000001 
lthumb 11.5534 23.859200000000001 
rclavicle 4.9696200000000002e-014 -4.9298600000000002e-014 
rhumerus -20.898700000000002 8.41953 -100.196 
rradius 64.2607 
rwrist 0.844109 
rhand -16.6876 17.799399999999999 
rfingers 7.1250200000000001 
rthumb 9.5367800000000003 -11.9648 
155
root -3.7593179999999999 8.3351699999999997 -11.157705 180.74600000000001 67.992800000000003 543.39300000000003 
lfemur -34.255499999999998 9.1119900000000005 -12.8896 
ltibia 27.409400000000002 
lfoot -8.2856400000000008 -8.1524599999999996 
ltoes -28.858599999999999 
rfemur 11.674300000000001 4.2081200000000001 26.9162 
rtibia 23.363499999999998 
rfoot -8.2981200000000008 36.158099999999997 
rtoes 27.069600000000001 
lowerback -0.044373099999999999 1.92845 2.2428499999999998 
upperback 10.7994 3.48081 -3.4271199999999999 
thorax 12.004300000000001 2.4146299999999998 -4.5531600000000001 
lowerneck 5.3920700000000004 -12.9595 -2.19055 
upperneck 2.6989899999999998 -17.443300000000001 12.9063 
head 1.45479 -8.7070100000000004 4.5257100000000001 
lclavicle -2.26615e-014 3.4986099999999999e-014 
lhumerus -31.196200000000001 5.0621799999999997 84.084999999999994 
lradius 20.427600000000002 
lwrist -25.963200000000001 
lhand -14.5441 -5.6312499999999996 
lfingers 7.1250200000000001 
lthumb 11.6044 24.0274 
rclavicle -2.26615e-014 3.4986099999999999e-014 
rhumerus -20.9818 8.3337299999999992 -100.268 
rradius 64.558700000000002 
rwrist 0.92504600000000003 
rhand -16.8369 17.921500000000002 
rfingers 7.1250200000000001 
rthumb 9.3927099999999992 -11.8492 
156
root -3.6968579999999998 8.3268000000000004 -11.200184999999999 180.95500000000001 68.494600000000005 543.58299999999997 
lfemur -34.038800000000002 8.3031400000000009 -12.596399999999999 
ltibia 27.783799999999999 
lfoot -7.9432999999999998 -7.9121600000000001 
ltoes -28.567499999999999 
rfemur 12.3331 4.6004300000000002 26.932500000000001 
rtibia 23.189599999999999 
rfoot -7.6458000000000004 35.9739 
rtoes 27.603100000000001 
lowerback 0.0091619900000000001 2.00434 2.2216499999999999 
upperback 10.76 3.5845799999999999 -3.4696199999999999 
thorax 11.9396 2.4625900000000001 -4.5788900000000003 
lowerneck 5.3616400000000004 -12.899900000000001 -2.1989800000000002 
upperneck 2.7960099999999999 -17.3734 12.9428 
head 1.4910300000000001 -8.66629 4.5362600000000004 
lclavicle 3.33958e-014 1.1927099999999999e-014 
lhumerus -30.823899999999998 5.4946299999999999 83.690700000000007 
lradius 20.2788 
lwrist -26.380299999999998 
lhand -14.422000000000001 -5.3159400000000003 
lfingers 7.1250200000000001 
lthumb 11.722200000000001 24.336099999999998 
rclavicle 3.33958e-014 1.1927099999999999e-014 
rhumerus -21.199200000000001 8.2141800000000007 -100.339 
rradius 64.847800000000007 
rwrist 0.94416699999999998 
rhand -17.0246 17.9665 
rfingers 7.1250200000000001 
rthumb 9.2116100000000003 -11.8123 
157
root -3.6335025000000005 8.3188800000000001 -11.242845000000001 181.09999999999999 68.958500000000001 543.71600000000001 
lfemur -33.811300000000003 7.48062 -12.3225 
ltibia 28.255299999999998 
lfoot -7.5543899999999997 -7.8419400000000001 
ltoes -27.729299999999999 
rfemur 13.0002 4.97783 26.938700000000001 
rtibia 23.041899999999998 
rfoot -7.0294499999999998 35.732300000000002 
rtoes 27.784400000000002 
lowerback 0.0448461 2.0640999999999998 2.14934 
upperback 10.741400000000001 3.6714699999999998 -3.5056099999999999 
thorax 11.903700000000001 2.4984600000000001 -4.5697099999999997 
lowerneck 5.3235200000000003 -12.8466 -2.2227399999999999 
upperneck 2.8743599999999998 -17.3126 12.9861 
head 1.5254099999999999 -8.6310599999999997 4.5514299999999999 
lclavicle -3.2203100000000001e-014 1.9083300000000001e-014 
lhumerus -30.494900000000001 6.2739500000000001 83.228700000000003 
lradius 20.127800000000001 
lwrist -27.097899999999999 
lhand -14.382999999999999 -5.0934699999999999 
lfingers 7.1250200000000001 
lthumb 11.7597 24.5564 
rclavicle -3.2203100000000001e-014 1.9083300000000001e-014 
rhumerus -21.411100000000001 7.9797599999999997 -100.492 
rradius 65.018299999999996 
rwrist 1.0363599999999999 
rhand -17.1783 17.948 
rfingers 7.1250200000000001 
rthumb 9.0632999999999999 -11.837300000000001 
